<svg xmlns="http://www.w3.org/2000/svg" x="0px" y="0px" viewBox="6.409600257873535 6.98859977722168 35.24034881591797 34.02269744873047" enable-background="new 0 0 48 48">
<g>
	<path fill="none" stroke="#FFFFFFFF" stroke-width="1" stroke-linecap="round" stroke-linejoin="round" stroke-miterlimit="10" d="   M13.5,18.5l-1.3404-7.9376C11.5,8,10.182,7.4886,8.3015,7.4886H6.9096"/>
</g>
<g>
	
		<path fill="#FFFFFF" stroke="#FFFFFFFF" stroke-width="1" stroke-linecap="round" stroke-linejoin="round" stroke-miterlimit="10" d="   M25.6477,8.5795h-5.8409c-0.9731,0-1.762,0.7889-1.762,1.762v3.488h9.3648v-3.488C27.4097,9.3684,26.6208,8.5795,25.6477,8.5795z"/>
	
		<path fill="#FFFFFF" stroke="#FFFFFFFF" stroke-width="1" stroke-linecap="round" stroke-linejoin="round" stroke-miterlimit="10" d="   M35.0125,8.5795h-5.8409c-0.9731,0-1.762,0.7889-1.762,1.762v3.488h9.3648v-3.488C36.7744,9.3684,35.9856,8.5795,35.0125,8.5795z"/>
</g>
<g>
	
		<path fill="#FFFFFF" stroke="#FFFFFFFF" stroke-width="1" stroke-linecap="round" stroke-linejoin="round" stroke-miterlimit="10" d="   M36.1615,31.9091H18.2964c-1.9767,0-3.6358-1.4895-3.8482-3.4547l-1.1173-10.3383c-0.2474-2.289,1.5459-4.2865,3.8482-4.2865   h20.0998c2.3023,0,4.0956,1.9976,3.8482,4.2865l-1.1173,10.3383C39.7973,30.4196,38.1382,31.9091,36.1615,31.9091z"/>
	
		<circle fill="#FFFFFF" stroke="#FFFFFFFF" stroke-width="1" stroke-linecap="round" stroke-linejoin="round" stroke-miterlimit="10" cx="20.229" cy="38.3295" r="2.1818"/>
	
		<circle fill="#FFFFFF" stroke="#FFFFFFFF" stroke-width="1" stroke-linecap="round" stroke-linejoin="round" stroke-miterlimit="10" cx="34.229" cy="38.3295" r="2.1818"/>
</g>
<g>
	
		<line fill="none" stroke="#FFFFFFFF" stroke-width="1" stroke-linecap="round" stroke-linejoin="round" stroke-miterlimit="10" x1="24.6993" y1="26.1274" x2="29.7585" y2="26.1274"/>
	
		<line fill="none" stroke="#FFFFFFFF" stroke-width="1" stroke-linecap="round" stroke-linejoin="round" stroke-miterlimit="10" x1="24.6993" y1="19.7273" x2="29.7585" y2="19.7273"/>
</g>
</svg>